<svg xmlns="http://www.w3.org/2000/svg" width="800" height="450" viewBox="0 0 800 450"><text x="400" y="24" font-family="Noto Sans JP, sans-serif" font-size="16" text-anchor="middle" fill="#666666">Cumulative Users</text><line x1="37.98" y1="420" x2="784.22" y2="420" stroke="#e0e0e0" stroke-width="1"/><text x="31.98" y="424.2" font-family="Noto Sans JP, sans-serif" font-size="12" text-anchor="end" fill="#666666">20</text><line x1="37.98" y1="384.2" x2="784.22" y2="384.2" stroke="#e0e0e0" stroke-width="1"/><text x="31.98" y="388.4" font-family="Noto Sans JP, sans-serif" font-size="12" text-anchor="end" fill="#666666">40</text><line x1="37.98" y1="348.4" x2="784.22" y2="348.4" stroke="#e0e0e0" stroke-width="1"/><text x="31.98" y="352.6" font-family="Noto Sans JP, sans-serif" font-size="12" text-anchor="end" fill="#666666">60</text><line x1="37.98" y1="312.6" x2="784.22" y2="312.6" stroke="#e0e0e0" stroke-width="1"/><text x="31.98" y="316.8" font-family="Noto Sans JP, sans-serif" font-size="12" text-anchor="end" fill="#666666">80</text><line x1="37.98" y1="276.8" x2="784.22" y2="276.8" stroke="#e0e0e0" stroke-width="1"/><text x="31.98" y="281" font-family="Noto Sans JP, sans-serif" font-size="12" text-anchor="end" fill="#666666">100</text><line x1="37.98" y1="241" x2="784.22" y2="241" stroke="#e0e0e0" stroke-width="1"/><text x="31.98" y="245.2" font-family="Noto Sans JP, sans-serif" font-size="12" text-anchor="end" fill="#666666">120</text><line x1="37.98" y1="205.2" x2="784.22" y2="205.2" stroke="#e0e0e0" stroke-width="1"/><text x="31.98" y="209.4" font-family="Noto Sans JP, sans-serif" font-size="12" text-anchor="end" fill="#666666">140</text><line x1="37.98" y1="169.4" x2="784.22" y2="169.4" stroke="#e0e0e0" stroke-width="1"/><text x="31.98" y="173.6" font-family="Noto Sans JP, sans-serif" font-size="12" text-anchor="end" fill="#666666">160</text><line x1="37.98" y1="133.6" x2="784.22" y2="133.6" stroke="#e0e0e0" stroke-width="1"/><text x="31.98" y="137.8" font-family="Noto Sans JP, sans-serif" font-size="12" text-anchor="end" fill="#666666">180</text><line x1="37.98" y1="97.8" x2="784.22" y2="97.8" stroke="#e0e0e0" stroke-width="1"/><text x="31.98" y="102" font-family="Noto Sans JP, sans-serif" font-size="12" text-anchor="end" fill="#666666">200</text><line x1="37.98" y1="62" x2="784.22" y2="62" stroke="#e0e0e0" stroke-width="1"/><text x="31.98" y="66.2" font-family="Noto Sans JP, sans-serif" font-size="12" text-anchor="end" fill="#666666">220</text><line x1="37.98" y1="420" x2="784.22" y2="420" stroke="#666666" stroke-width="1"/><text x="37.98" y="435.4" font-family="Noto Sans JP, sans-serif" font-size="12" text-anchor="middle" fill="#666666">Q1</text><text x="286.73" y="435.4" font-family="Noto Sans JP, sans-serif" font-size="12" text-anchor="middle" fill="#666666">Q2</text><text x="535.47" y="435.4" font-family="Noto Sans JP, sans-serif" font-size="12" text-anchor="middle" fill="#666666">Q3</text><text x="784.22" y="435.4" font-family="Noto Sans JP, sans-serif" font-size="12" text-anchor="middle" fill="#666666">Q4</text><rect x="351.78" y="43" width="12" height="12" fill="#4bc0c0"/><text x="367.78" y="53.2" font-family="Noto Sans JP, sans-serif" font-size="12" text-anchor="start" fill="#666666">Total Users (k)</text><path d="M 37.98 402.1 L 286.73 321.55 L 535.47 223.1 L 784.22 79.9 L 784.22 420 L 37.98 420 Z" fill="#4bc0c0" stroke="none"/><path d="M 37.98 402.1 C 50.42 398.07 261.85 330.5 286.73 321.55 C 311.6 312.6 510.6 235.18 535.47 223.1 C 560.35 211.02 771.78 87.06 784.22 79.9 " fill="none" stroke="#4bc0c0" stroke-width="3"/><circle cx="37.98" cy="402.1" r="3" fill="#4bc0c0"/><circle cx="286.73" cy="321.55" r="3" fill="#4bc0c0"/><circle cx="535.47" cy="223.1" r="3" fill="#4bc0c0"/><circle cx="784.22" cy="79.9" r="3" fill="#4bc0c0"/></svg>
