<svg xmlns="http://www.w3.org/2000/svg" width="800" height="450" viewBox="0 0 800 450"><text x="400" y="24" font-family="Noto Sans JP, sans-serif" font-size="16" text-anchor="middle" fill="#666666">ユーザー数の推移</text><line x1="37.98" y1="420" x2="792" y2="420" stroke="#e0e0e0" stroke-width="1"/><text x="31.98" y="424.2" font-family="Noto Sans JP, sans-serif" font-size="12" text-anchor="end" fill="#666666">0</text><line x1="37.98" y1="348.4" x2="792" y2="348.4" stroke="#e0e0e0" stroke-width="1"/><text x="31.98" y="352.6" font-family="Noto Sans JP, sans-serif" font-size="12" text-anchor="end" fill="#666666">50</text><line x1="37.98" y1="276.8" x2="792" y2="276.8" stroke="#e0e0e0" stroke-width="1"/><text x="31.98" y="281" font-family="Noto Sans JP, sans-serif" font-size="12" text-anchor="end" fill="#666666">100</text><line x1="37.98" y1="205.2" x2="792" y2="205.2" stroke="#e0e0e0" stroke-width="1"/><text x="31.98" y="209.4" font-family="Noto Sans JP, sans-serif" font-size="12" text-anchor="end" fill="#666666">150</text><line x1="37.98" y1="133.6" x2="792" y2="133.6" stroke="#e0e0e0" stroke-width="1"/><text x="31.98" y="137.8" font-family="Noto Sans JP, sans-serif" font-size="12" text-anchor="end" fill="#666666">200</text><line x1="37.98" y1="62" x2="792" y2="62" stroke="#e0e0e0" stroke-width="1"/><text x="31.98" y="66.2" font-family="Noto Sans JP, sans-serif" font-size="12" text-anchor="end" fill="#666666">250</text><line x1="37.98" y1="420" x2="792" y2="420" stroke="#666666" stroke-width="1"/><text x="132.23" y="435.4" font-family="Noto Sans JP, sans-serif" font-size="12" text-anchor="middle" fill="#666666">Q1</text><text x="320.74" y="435.4" font-family="Noto Sans JP, sans-serif" font-size="12" text-anchor="middle" fill="#666666">Q2</text><text x="509.24" y="435.4" font-family="Noto Sans JP, sans-serif" font-size="12" text-anchor="middle" fill="#666666">Q3</text><text x="697.75" y="435.4" font-family="Noto Sans JP, sans-serif" font-size="12" text-anchor="middle" fill="#666666">Q4</text><rect x="332.6" y="43" width="12" height="12" fill="#4bc0c0"/><text x="348.6" y="53.2" font-family="Noto Sans JP, sans-serif" font-size="12" text-anchor="start" fill="#666666">累計ユーザー数 (千人)</text><path d="M 132.23 377.04 L 320.74 312.6 L 509.24 233.84 L 697.75 119.28 L 697.75 420 L 132.23 420 Z" fill="#4bc0c0" stroke="none" fill-opacity="0.3"/><path d="M 132.23 377.04 C 141.66 373.82 301.89 319.76 320.74 312.6 C 339.59 305.44 490.39 243.51 509.24 233.84 C 528.09 224.17 688.32 125.01 697.75 119.28 " fill="none" stroke="#4bc0c0" stroke-width="3"/><circle cx="132.23" cy="377.04" r="3" fill="#4bc0c0"/><circle cx="320.74" cy="312.6" r="3" fill="#4bc0c0"/><circle cx="509.24" cy="233.84" r="3" fill="#4bc0c0"/><circle cx="697.75" cy="119.28" r="3" fill="#4bc0c0"/></svg>
