<svg xmlns="http://www.w3.org/2000/svg" width="800" height="450" viewBox="0 0 800 450"><text x="400" y="24" font-family="Noto Sans JP, sans-serif" font-size="16" text-anchor="middle" fill="#666666">Satisfaction by Language (horizontal bar)</text><line x1="78.72" y1="36" x2="78.72" y2="420" stroke="#e0e0e0" stroke-width="1"/><text x="78.72" y="435.4" font-family="Noto Sans JP, sans-serif" font-size="12" text-anchor="middle" fill="#666666">0</text><line x1="221.38" y1="36" x2="221.38" y2="420" stroke="#e0e0e0" stroke-width="1"/><text x="221.38" y="435.4" font-family="Noto Sans JP, sans-serif" font-size="12" text-anchor="middle" fill="#666666">20</text><line x1="364.03" y1="36" x2="364.03" y2="420" stroke="#e0e0e0" stroke-width="1"/><text x="364.03" y="435.4" font-family="Noto Sans JP, sans-serif" font-size="12" text-anchor="middle" fill="#666666">40</text><line x1="506.69" y1="36" x2="506.69" y2="420" stroke="#e0e0e0" stroke-width="1"/><text x="506.69" y="435.4" font-family="Noto Sans JP, sans-serif" font-size="12" text-anchor="middle" fill="#666666">60</text><line x1="649.34" y1="36" x2="649.34" y2="420" stroke="#e0e0e0" stroke-width="1"/><text x="649.34" y="435.4" font-family="Noto Sans JP, sans-serif" font-size="12" text-anchor="middle" fill="#666666">80</text><line x1="792" y1="36" x2="792" y2="420" stroke="#e0e0e0" stroke-width="1"/><text x="792" y="435.4" font-family="Noto Sans JP, sans-serif" font-size="12" text-anchor="middle" fill="#666666">100</text><line x1="78.72" y1="36" x2="78.72" y2="420" stroke="#666666" stroke-width="1"/><text x="72.72" y="78.6" font-family="Noto Sans JP, sans-serif" font-size="12" text-anchor="end" fill="#666666">Rust</text><rect x="78.72" y="43.68" width="620.55" height="55.3" fill="#36a2eb"/><text x="72.72" y="155.4" font-family="Noto Sans JP, sans-serif" font-size="12" text-anchor="end" fill="#666666">Go</text><rect x="78.72" y="120.48" width="520.69" height="55.3" fill="#36a2eb"/><text x="72.72" y="232.2" font-family="Noto Sans JP, sans-serif" font-size="12" text-anchor="end" fill="#666666">TypeScript</text><rect x="78.72" y="197.28" width="556.36" height="55.3" fill="#36a2eb"/><text x="72.72" y="309" font-family="Noto Sans JP, sans-serif" font-size="12" text-anchor="end" fill="#666666">Python</text><rect x="78.72" y="274.08" width="577.76" height="55.3" fill="#36a2eb"/><text x="72.72" y="385.8" font-family="Noto Sans JP, sans-serif" font-size="12" text-anchor="end" fill="#666666">Kotlin</text><rect x="78.72" y="350.88" width="492.16" height="55.3" fill="#36a2eb"/></svg>
