<svg xmlns="http://www.w3.org/2000/svg" width="800" height="450" viewBox="0 0 800 450"><text x="400" y="24" font-family="Noto Sans JP, sans-serif" font-size="16" text-anchor="middle" fill="#666666">月次売上</text><line x1="37.98" y1="420" x2="792" y2="420" stroke="#e0e0e0" stroke-width="1"/><text x="31.98" y="424.2" font-family="Noto Sans JP, sans-serif" font-size="12" text-anchor="end" fill="#666666">0</text><line x1="37.98" y1="300.67" x2="792" y2="300.67" stroke="#e0e0e0" stroke-width="1"/><text x="31.98" y="304.87" font-family="Noto Sans JP, sans-serif" font-size="12" text-anchor="end" fill="#666666">100</text><line x1="37.98" y1="181.33" x2="792" y2="181.33" stroke="#e0e0e0" stroke-width="1"/><text x="31.98" y="185.53" font-family="Noto Sans JP, sans-serif" font-size="12" text-anchor="end" fill="#666666">200</text><line x1="37.98" y1="62" x2="792" y2="62" stroke="#e0e0e0" stroke-width="1"/><text x="31.98" y="66.2" font-family="Noto Sans JP, sans-serif" font-size="12" text-anchor="end" fill="#666666">300</text><line x1="37.98" y1="420" x2="792" y2="420" stroke="#666666" stroke-width="1"/><text x="113.38" y="435.4" font-family="Noto Sans JP, sans-serif" font-size="12" text-anchor="middle" fill="#666666">1月</text><text x="264.19" y="435.4" font-family="Noto Sans JP, sans-serif" font-size="12" text-anchor="middle" fill="#666666">2月</text><text x="414.99" y="435.4" font-family="Noto Sans JP, sans-serif" font-size="12" text-anchor="middle" fill="#666666">3月</text><text x="565.79" y="435.4" font-family="Noto Sans JP, sans-serif" font-size="12" text-anchor="middle" fill="#666666">4月</text><text x="716.6" y="435.4" font-family="Noto Sans JP, sans-serif" font-size="12" text-anchor="middle" fill="#666666">5月</text><rect x="362.6" y="43" width="12" height="12" fill="#36a2eb"/><text x="378.6" y="53.2" font-family="Noto Sans JP, sans-serif" font-size="12" text-anchor="start" fill="#666666">売上 (万円)</text><rect x="53.06" y="276.8" width="108.58" height="143.2" fill="#36a2eb"/><rect x="203.86" y="181.33" width="108.58" height="238.67" fill="#36a2eb"/><rect x="354.67" y="241" width="108.58" height="179" fill="#36a2eb"/><rect x="505.47" y="85.87" width="108.58" height="334.13" fill="#36a2eb"/><rect x="656.28" y="133.6" width="108.58" height="286.4" fill="#36a2eb"/></svg>
