<svg xmlns="http://www.w3.org/2000/svg" width="800" height="450" viewBox="0 0 800 450"><text x="400" y="24" font-family="Noto Sans JP, sans-serif" font-size="16" text-anchor="middle" fill="#666666">Median Age, Income &amp; Population (bubble)</text><line x1="37.98" y1="420" x2="792" y2="420" stroke="#e0e0e0" stroke-width="1"/><text x="31.98" y="424.2" font-family="Noto Sans JP, sans-serif" font-size="12" text-anchor="end" fill="#666666">100</text><line x1="37.98" y1="356" x2="792" y2="356" stroke="#e0e0e0" stroke-width="1"/><text x="31.98" y="360.2" font-family="Noto Sans JP, sans-serif" font-size="12" text-anchor="end" fill="#666666">200</text><line x1="37.98" y1="292" x2="792" y2="292" stroke="#e0e0e0" stroke-width="1"/><text x="31.98" y="296.2" font-family="Noto Sans JP, sans-serif" font-size="12" text-anchor="end" fill="#666666">300</text><line x1="37.98" y1="228" x2="792" y2="228" stroke="#e0e0e0" stroke-width="1"/><text x="31.98" y="232.2" font-family="Noto Sans JP, sans-serif" font-size="12" text-anchor="end" fill="#666666">400</text><line x1="37.98" y1="164" x2="792" y2="164" stroke="#e0e0e0" stroke-width="1"/><text x="31.98" y="168.2" font-family="Noto Sans JP, sans-serif" font-size="12" text-anchor="end" fill="#666666">500</text><line x1="37.98" y1="100" x2="792" y2="100" stroke="#e0e0e0" stroke-width="1"/><text x="31.98" y="104.2" font-family="Noto Sans JP, sans-serif" font-size="12" text-anchor="end" fill="#666666">600</text><line x1="37.98" y1="36" x2="792" y2="36" stroke="#e0e0e0" stroke-width="1"/><text x="31.98" y="40.2" font-family="Noto Sans JP, sans-serif" font-size="12" text-anchor="end" fill="#666666">700</text><line x1="37.98" y1="36" x2="37.98" y2="420" stroke="#e0e0e0" stroke-width="1"/><text x="37.98" y="435.4" font-family="Noto Sans JP, sans-serif" font-size="12" text-anchor="middle" fill="#666666">0</text><line x1="226.48" y1="36" x2="226.48" y2="420" stroke="#e0e0e0" stroke-width="1"/><text x="226.48" y="435.4" font-family="Noto Sans JP, sans-serif" font-size="12" text-anchor="middle" fill="#666666">10</text><line x1="414.99" y1="36" x2="414.99" y2="420" stroke="#e0e0e0" stroke-width="1"/><text x="414.99" y="435.4" font-family="Noto Sans JP, sans-serif" font-size="12" text-anchor="middle" fill="#666666">20</text><line x1="603.49" y1="36" x2="603.49" y2="420" stroke="#e0e0e0" stroke-width="1"/><text x="603.49" y="435.4" font-family="Noto Sans JP, sans-serif" font-size="12" text-anchor="middle" fill="#666666">30</text><line x1="792" y1="36" x2="792" y2="420" stroke="#e0e0e0" stroke-width="1"/><text x="792" y="435.4" font-family="Noto Sans JP, sans-serif" font-size="12" text-anchor="middle" fill="#666666">40</text><line x1="37.98" y1="420" x2="792" y2="420" stroke="#666666" stroke-width="1"/><line x1="37.98" y1="36" x2="37.98" y2="420" stroke="#666666" stroke-width="1"/><circle cx="697.75" cy="87.2" r="28" fill="#9966ff"/><circle cx="490.39" cy="221.6" r="18" fill="#9966ff"/><circle cx="301.89" cy="324" r="12" fill="#9966ff"/><circle cx="207.63" cy="388" r="8" fill="#9966ff"/></svg>
