<svg xmlns="http://www.w3.org/2000/svg" width="800" height="450" viewBox="0 0 800 450"><text x="400" y="24" font-family="Noto Sans JP, sans-serif" font-size="16" text-anchor="middle" fill="#666666">曜日別の歩数（データラベル付き）</text><line x1="31.32" y1="420" x2="792" y2="420" stroke="#e0e0e0" stroke-width="1"/><text x="25.32" y="424.2" font-family="Noto Sans JP, sans-serif" font-size="12" text-anchor="end" fill="#666666">0</text><line x1="31.32" y1="292" x2="792" y2="292" stroke="#e0e0e0" stroke-width="1"/><text x="25.32" y="296.2" font-family="Noto Sans JP, sans-serif" font-size="12" text-anchor="end" fill="#666666">5</text><line x1="31.32" y1="164" x2="792" y2="164" stroke="#e0e0e0" stroke-width="1"/><text x="25.32" y="168.2" font-family="Noto Sans JP, sans-serif" font-size="12" text-anchor="end" fill="#666666">10</text><line x1="31.32" y1="36" x2="792" y2="36" stroke="#e0e0e0" stroke-width="1"/><text x="25.32" y="40.2" font-family="Noto Sans JP, sans-serif" font-size="12" text-anchor="end" fill="#666666">15</text><line x1="31.32" y1="420" x2="792" y2="420" stroke="#666666" stroke-width="1"/><text x="107.39" y="435.4" font-family="Noto Sans JP, sans-serif" font-size="12" text-anchor="middle" fill="#666666">月</text><text x="259.52" y="435.4" font-family="Noto Sans JP, sans-serif" font-size="12" text-anchor="middle" fill="#666666">火</text><text x="411.66" y="435.4" font-family="Noto Sans JP, sans-serif" font-size="12" text-anchor="middle" fill="#666666">水</text><text x="563.8" y="435.4" font-family="Noto Sans JP, sans-serif" font-size="12" text-anchor="middle" fill="#666666">木</text><text x="715.93" y="435.4" font-family="Noto Sans JP, sans-serif" font-size="12" text-anchor="middle" fill="#666666">金</text><rect x="46.53" y="215.2" width="109.54" height="204.8" fill="#4bc0c0"/><text x="101.3" y="211.2" font-family="Noto Sans JP, sans-serif" font-size="12" text-anchor="middle" fill="#666666">8</text><rect x="198.67" y="112.8" width="109.54" height="307.2" fill="#4bc0c0"/><text x="253.44" y="108.8" font-family="Noto Sans JP, sans-serif" font-size="12" text-anchor="middle" fill="#666666">12</text><rect x="350.81" y="266.4" width="109.54" height="153.6" fill="#4bc0c0"/><text x="405.57" y="262.4" font-family="Noto Sans JP, sans-serif" font-size="12" text-anchor="middle" fill="#666666">6</text><rect x="502.94" y="61.6" width="109.54" height="358.4" fill="#4bc0c0"/><text x="557.71" y="57.6" font-family="Noto Sans JP, sans-serif" font-size="12" text-anchor="middle" fill="#666666">14</text><rect x="655.08" y="138.4" width="109.54" height="281.6" fill="#4bc0c0"/><text x="709.85" y="134.4" font-family="Noto Sans JP, sans-serif" font-size="12" text-anchor="middle" fill="#666666">11</text></svg>
