<svg xmlns="http://www.w3.org/2000/svg" width="800" height="450" viewBox="0 0 800 450"><text x="400" y="24" font-family="Noto Sans JP, sans-serif" font-size="16" text-anchor="middle" fill="#666666">Browser Share (doughnut)</text><rect x="715.37" y="197" width="12" height="12" fill="#36a2eb"/><text x="731.37" y="207.2" font-family="Noto Sans JP, sans-serif" font-size="12" text-anchor="start" fill="#666666">Chrome</text><rect x="715.37" y="215" width="12" height="12" fill="#ff6384"/><text x="731.37" y="225.2" font-family="Noto Sans JP, sans-serif" font-size="12" text-anchor="start" fill="#666666">Safari</text><rect x="715.37" y="233" width="12" height="12" fill="#ff9f40"/><text x="731.37" y="243.2" font-family="Noto Sans JP, sans-serif" font-size="12" text-anchor="start" fill="#666666">Edge</text><rect x="715.37" y="251" width="12" height="12" fill="#ffcd56"/><text x="731.37" y="261.2" font-family="Noto Sans JP, sans-serif" font-size="12" text-anchor="start" fill="#666666">Firefox</text><rect x="715.37" y="269" width="12" height="12" fill="#4bc0c0"/><text x="731.37" y="279.2" font-family="Noto Sans JP, sans-serif" font-size="12" text-anchor="start" fill="#666666">Other</text><path d="M 361.69 56.3 A 182.7 182.7 0 1 1 228.5 364.07 L 295.09 301.53 A 91.35 91.35 0 1 0 361.69 147.65 Z" fill="#36a2eb" stroke="#ffffff" stroke-width="1"/><path d="M 228.5 364.07 A 182.7 182.7 0 0 1 196.37 161.21 L 279.03 200.11 A 91.35 91.35 0 0 0 295.09 301.53 Z" fill="#ff6384" stroke="#ffffff" stroke-width="1"/><path d="M 196.37 161.21 A 182.7 182.7 0 0 1 254.3 91.19 L 307.99 165.1 A 91.35 91.35 0 0 0 279.03 200.11 Z" fill="#ff9f40" stroke="#ffffff" stroke-width="1"/><path d="M 254.3 91.19 A 182.7 182.7 0 0 1 316.25 62.04 L 338.97 150.52 A 91.35 91.35 0 0 0 307.99 165.1 Z" fill="#ffcd56" stroke="#ffffff" stroke-width="1"/><path d="M 316.25 62.04 A 182.7 182.7 0 0 1 361.69 56.3 L 361.69 147.65 A 91.35 91.35 0 0 0 338.97 150.52 Z" fill="#4bc0c0" stroke="#ffffff" stroke-width="1"/></svg>
