<svg xmlns="http://www.w3.org/2000/svg" width="800" height="450" viewBox="0 0 800 450"><text x="400" y="24" font-family="Noto Sans JP, sans-serif" font-size="16" text-anchor="middle" fill="#666666">Sine Wave (24 points)</text><line x1="37.98" y1="420" x2="785.34" y2="420" stroke="#e0e0e0" stroke-width="1"/><text x="31.98" y="424.2" font-family="Noto Sans JP, sans-serif" font-size="12" text-anchor="end" fill="#666666">0</text><line x1="37.98" y1="384.2" x2="785.34" y2="384.2" stroke="#e0e0e0" stroke-width="1"/><text x="31.98" y="388.4" font-family="Noto Sans JP, sans-serif" font-size="12" text-anchor="end" fill="#666666">10</text><line x1="37.98" y1="348.4" x2="785.34" y2="348.4" stroke="#e0e0e0" stroke-width="1"/><text x="31.98" y="352.6" font-family="Noto Sans JP, sans-serif" font-size="12" text-anchor="end" fill="#666666">20</text><line x1="37.98" y1="312.6" x2="785.34" y2="312.6" stroke="#e0e0e0" stroke-width="1"/><text x="31.98" y="316.8" font-family="Noto Sans JP, sans-serif" font-size="12" text-anchor="end" fill="#666666">30</text><line x1="37.98" y1="276.8" x2="785.34" y2="276.8" stroke="#e0e0e0" stroke-width="1"/><text x="31.98" y="281" font-family="Noto Sans JP, sans-serif" font-size="12" text-anchor="end" fill="#666666">40</text><line x1="37.98" y1="241" x2="785.34" y2="241" stroke="#e0e0e0" stroke-width="1"/><text x="31.98" y="245.2" font-family="Noto Sans JP, sans-serif" font-size="12" text-anchor="end" fill="#666666">50</text><line x1="37.98" y1="205.2" x2="785.34" y2="205.2" stroke="#e0e0e0" stroke-width="1"/><text x="31.98" y="209.4" font-family="Noto Sans JP, sans-serif" font-size="12" text-anchor="end" fill="#666666">60</text><line x1="37.98" y1="169.4" x2="785.34" y2="169.4" stroke="#e0e0e0" stroke-width="1"/><text x="31.98" y="173.6" font-family="Noto Sans JP, sans-serif" font-size="12" text-anchor="end" fill="#666666">70</text><line x1="37.98" y1="133.6" x2="785.34" y2="133.6" stroke="#e0e0e0" stroke-width="1"/><text x="31.98" y="137.8" font-family="Noto Sans JP, sans-serif" font-size="12" text-anchor="end" fill="#666666">80</text><line x1="37.98" y1="97.8" x2="785.34" y2="97.8" stroke="#e0e0e0" stroke-width="1"/><text x="31.98" y="102" font-family="Noto Sans JP, sans-serif" font-size="12" text-anchor="end" fill="#666666">90</text><line x1="37.98" y1="62" x2="785.34" y2="62" stroke="#e0e0e0" stroke-width="1"/><text x="31.98" y="66.2" font-family="Noto Sans JP, sans-serif" font-size="12" text-anchor="end" fill="#666666">100</text><line x1="37.98" y1="420" x2="785.34" y2="420" stroke="#666666" stroke-width="1"/><text x="37.98" y="435.4" font-family="Noto Sans JP, sans-serif" font-size="12" text-anchor="middle" fill="#666666">0</text><text x="70.47" y="435.4" font-family="Noto Sans JP, sans-serif" font-size="12" text-anchor="middle" fill="#666666">1</text><text x="102.97" y="435.4" font-family="Noto Sans JP, sans-serif" font-size="12" text-anchor="middle" fill="#666666">2</text><text x="135.46" y="435.4" font-family="Noto Sans JP, sans-serif" font-size="12" text-anchor="middle" fill="#666666">3</text><text x="167.96" y="435.4" font-family="Noto Sans JP, sans-serif" font-size="12" text-anchor="middle" fill="#666666">4</text><text x="200.45" y="435.4" font-family="Noto Sans JP, sans-serif" font-size="12" text-anchor="middle" fill="#666666">5</text><text x="232.94" y="435.4" font-family="Noto Sans JP, sans-serif" font-size="12" text-anchor="middle" fill="#666666">6</text><text x="265.44" y="435.4" font-family="Noto Sans JP, sans-serif" font-size="12" text-anchor="middle" fill="#666666">7</text><text x="297.93" y="435.4" font-family="Noto Sans JP, sans-serif" font-size="12" text-anchor="middle" fill="#666666">8</text><text x="330.43" y="435.4" font-family="Noto Sans JP, sans-serif" font-size="12" text-anchor="middle" fill="#666666">9</text><text x="362.92" y="435.4" font-family="Noto Sans JP, sans-serif" font-size="12" text-anchor="middle" fill="#666666">10</text><text x="395.41" y="435.4" font-family="Noto Sans JP, sans-serif" font-size="12" text-anchor="middle" fill="#666666">11</text><text x="427.91" y="435.4" font-family="Noto Sans JP, sans-serif" font-size="12" text-anchor="middle" fill="#666666">12</text><text x="460.4" y="435.4" font-family="Noto Sans JP, sans-serif" font-size="12" text-anchor="middle" fill="#666666">13</text><text x="492.89" y="435.4" font-family="Noto Sans JP, sans-serif" font-size="12" text-anchor="middle" fill="#666666">14</text><text x="525.39" y="435.4" font-family="Noto Sans JP, sans-serif" font-size="12" text-anchor="middle" fill="#666666">15</text><text x="557.88" y="435.4" font-family="Noto Sans JP, sans-serif" font-size="12" text-anchor="middle" fill="#666666">16</text><text x="590.38" y="435.4" font-family="Noto Sans JP, sans-serif" font-size="12" text-anchor="middle" fill="#666666">17</text><text x="622.87" y="435.4" font-family="Noto Sans JP, sans-serif" font-size="12" text-anchor="middle" fill="#666666">18</text><text x="655.36" y="435.4" font-family="Noto Sans JP, sans-serif" font-size="12" text-anchor="middle" fill="#666666">19</text><text x="687.86" y="435.4" font-family="Noto Sans JP, sans-serif" font-size="12" text-anchor="middle" fill="#666666">20</text><text x="720.35" y="435.4" font-family="Noto Sans JP, sans-serif" font-size="12" text-anchor="middle" fill="#666666">21</text><text x="752.85" y="435.4" font-family="Noto Sans JP, sans-serif" font-size="12" text-anchor="middle" fill="#666666">22</text><text x="785.34" y="435.4" font-family="Noto Sans JP, sans-serif" font-size="12" text-anchor="middle" fill="#666666">23</text><rect x="376.84" y="43" width="12" height="12" fill="#000000" fill-opacity="0.1"/><text x="392.84" y="53.2" font-family="Noto Sans JP, sans-serif" font-size="12" text-anchor="start" fill="#666666">sin(x)</text><path d="M 37.98 241 C 40.15 238.14 66.14 203.77 70.47 198.04 C 74.81 192.31 98.64 160.57 102.97 155.08 C 107.3 149.59 131.13 120.23 135.46 115.7 C 139.79 111.17 163.62 90.16 167.96 87.06 C 172.29 83.96 196.12 70.83 200.45 69.16 C 204.78 67.49 228.61 62 232.94 62 C 237.28 62 261.1 67.49 265.44 69.16 C 269.77 70.83 293.6 83.96 297.93 87.06 C 302.26 90.16 326.09 111.4 330.43 115.7 C 334.76 120 358.59 146.01 362.92 151.5 C 367.25 156.99 391.08 192.07 395.41 198.04 C 399.75 204.01 423.57 235.03 427.91 241 C 432.24 246.97 456.07 281.57 460.4 287.54 C 464.73 293.51 488.56 325.01 492.89 330.5 C 497.23 335.99 521.06 365.35 525.39 369.88 C 529.72 374.41 553.55 395.42 557.88 398.52 C 562.22 401.62 586.04 414.99 590.38 416.42 C 594.71 417.85 618.54 420 622.87 420 C 627.2 420 651.03 417.85 655.36 416.42 C 659.7 414.99 683.53 401.62 687.86 398.52 C 692.19 395.42 716.02 374.18 720.35 369.88 C 724.68 365.58 748.51 339.57 752.85 334.08 C 757.18 328.59 783.17 290.64 785.34 287.54 " fill="none" stroke="#ff6384" stroke-width="3"/><circle cx="37.98" cy="241" r="3" fill="#ff6384"/><circle cx="70.47" cy="198.04" r="3" fill="#ff6384"/><circle cx="102.97" cy="155.08" r="3" fill="#ff6384"/><circle cx="135.46" cy="115.7" r="3" fill="#ff6384"/><circle cx="167.96" cy="87.06" r="3" fill="#ff6384"/><circle cx="200.45" cy="69.16" r="3" fill="#ff6384"/><circle cx="232.94" cy="62" r="3" fill="#ff6384"/><circle cx="265.44" cy="69.16" r="3" fill="#ff6384"/><circle cx="297.93" cy="87.06" r="3" fill="#ff6384"/><circle cx="330.43" cy="115.7" r="3" fill="#ff6384"/><circle cx="362.92" cy="151.5" r="3" fill="#ff6384"/><circle cx="395.41" cy="198.04" r="3" fill="#ff6384"/><circle cx="427.91" cy="241" r="3" fill="#ff6384"/><circle cx="460.4" cy="287.54" r="3" fill="#ff6384"/><circle cx="492.89" cy="330.5" r="3" fill="#ff6384"/><circle cx="525.39" cy="369.88" r="3" fill="#ff6384"/><circle cx="557.88" cy="398.52" r="3" fill="#ff6384"/><circle cx="590.38" cy="416.42" r="3" fill="#ff6384"/><circle cx="622.87" cy="420" r="3" fill="#ff6384"/><circle cx="655.36" cy="416.42" r="3" fill="#ff6384"/><circle cx="687.86" cy="398.52" r="3" fill="#ff6384"/><circle cx="720.35" cy="369.88" r="3" fill="#ff6384"/><circle cx="752.85" cy="334.08" r="3" fill="#ff6384"/><circle cx="785.34" cy="287.54" r="3" fill="#ff6384"/></svg>
