<svg xmlns="http://www.w3.org/2000/svg" width="800" height="450" viewBox="0 0 800 450"><text x="400" y="24" font-family="Noto Sans JP, sans-serif" font-size="16" text-anchor="middle" fill="#666666">Weekly Temperature (°C)</text><line x1="31.32" y1="420" x2="781.12" y2="420" stroke="#e0e0e0" stroke-width="1"/><text x="25.32" y="424.2" font-family="Noto Sans JP, sans-serif" font-size="12" text-anchor="end" fill="#666666">12</text><line x1="31.32" y1="375.25" x2="781.12" y2="375.25" stroke="#e0e0e0" stroke-width="1"/><text x="25.32" y="379.45" font-family="Noto Sans JP, sans-serif" font-size="12" text-anchor="end" fill="#666666">14</text><line x1="31.32" y1="330.5" x2="781.12" y2="330.5" stroke="#e0e0e0" stroke-width="1"/><text x="25.32" y="334.7" font-family="Noto Sans JP, sans-serif" font-size="12" text-anchor="end" fill="#666666">16</text><line x1="31.32" y1="285.75" x2="781.12" y2="285.75" stroke="#e0e0e0" stroke-width="1"/><text x="25.32" y="289.95" font-family="Noto Sans JP, sans-serif" font-size="12" text-anchor="end" fill="#666666">18</text><line x1="31.32" y1="241" x2="781.12" y2="241" stroke="#e0e0e0" stroke-width="1"/><text x="25.32" y="245.2" font-family="Noto Sans JP, sans-serif" font-size="12" text-anchor="end" fill="#666666">20</text><line x1="31.32" y1="196.25" x2="781.12" y2="196.25" stroke="#e0e0e0" stroke-width="1"/><text x="25.32" y="200.45" font-family="Noto Sans JP, sans-serif" font-size="12" text-anchor="end" fill="#666666">22</text><line x1="31.32" y1="151.5" x2="781.12" y2="151.5" stroke="#e0e0e0" stroke-width="1"/><text x="25.32" y="155.7" font-family="Noto Sans JP, sans-serif" font-size="12" text-anchor="end" fill="#666666">24</text><line x1="31.32" y1="106.75" x2="781.12" y2="106.75" stroke="#e0e0e0" stroke-width="1"/><text x="25.32" y="110.95" font-family="Noto Sans JP, sans-serif" font-size="12" text-anchor="end" fill="#666666">26</text><line x1="31.32" y1="62" x2="781.12" y2="62" stroke="#e0e0e0" stroke-width="1"/><text x="25.32" y="66.2" font-family="Noto Sans JP, sans-serif" font-size="12" text-anchor="end" fill="#666666">28</text><line x1="31.32" y1="420" x2="781.12" y2="420" stroke="#666666" stroke-width="1"/><text x="31.32" y="435.4" font-family="Noto Sans JP, sans-serif" font-size="12" text-anchor="middle" fill="#666666">Mon</text><text x="156.29" y="435.4" font-family="Noto Sans JP, sans-serif" font-size="12" text-anchor="middle" fill="#666666">Tue</text><text x="281.25" y="435.4" font-family="Noto Sans JP, sans-serif" font-size="12" text-anchor="middle" fill="#666666">Wed</text><text x="406.22" y="435.4" font-family="Noto Sans JP, sans-serif" font-size="12" text-anchor="middle" fill="#666666">Thu</text><text x="531.19" y="435.4" font-family="Noto Sans JP, sans-serif" font-size="12" text-anchor="middle" fill="#666666">Fri</text><text x="656.15" y="435.4" font-family="Noto Sans JP, sans-serif" font-size="12" text-anchor="middle" fill="#666666">Sat</text><text x="781.12" y="435.4" font-family="Noto Sans JP, sans-serif" font-size="12" text-anchor="middle" fill="#666666">Sun</text><rect x="341.37" y="43" width="12" height="12" fill="#000000" fill-opacity="0.1"/><text x="357.37" y="53.2" font-family="Noto Sans JP, sans-serif" font-size="12" text-anchor="start" fill="#666666">Tokyo</text><rect x="407.98" y="43" width="12" height="12" fill="#000000" fill-opacity="0.1"/><text x="423.98" y="53.2" font-family="Noto Sans JP, sans-serif" font-size="12" text-anchor="start" fill="#666666">Osaka</text><path d="M 31.32 420 C 39.65 415.53 139.62 355.86 156.29 352.88 C 172.95 349.89 264.59 379.73 281.25 375.25 C 297.92 370.78 389.56 297.68 406.22 285.75 C 422.88 273.82 514.53 206.69 531.19 196.25 C 547.85 185.81 639.49 127.63 656.15 129.13 C 672.82 130.62 772.79 212.66 781.12 218.63 " fill="none" stroke="#ff6384" stroke-width="3"/><circle cx="31.32" cy="420" r="3" fill="#ff6384"/><circle cx="156.29" cy="352.88" r="3" fill="#ff6384"/><circle cx="281.25" cy="375.25" r="3" fill="#ff6384"/><circle cx="406.22" cy="285.75" r="3" fill="#ff6384"/><circle cx="531.19" cy="196.25" r="3" fill="#ff6384"/><circle cx="656.15" cy="129.13" r="3" fill="#ff6384"/><circle cx="781.12" cy="218.63" r="3" fill="#ff6384"/><path d="M 31.32 375.25 C 39.65 372.27 139.62 334.98 156.29 330.5 C 172.95 326.02 264.59 312.6 281.25 308.13 C 297.92 303.65 389.56 273.82 406.22 263.38 C 422.88 252.93 514.53 163.43 531.19 151.5 C 547.85 139.57 639.49 82.88 656.15 84.38 C 672.82 85.87 772.79 167.91 781.12 173.88 " fill="none" stroke="#36a2eb" stroke-width="3"/><circle cx="31.32" cy="375.25" r="3" fill="#36a2eb"/><circle cx="156.29" cy="330.5" r="3" fill="#36a2eb"/><circle cx="281.25" cy="308.13" r="3" fill="#36a2eb"/><circle cx="406.22" cy="263.38" r="3" fill="#36a2eb"/><circle cx="531.19" cy="151.5" r="3" fill="#36a2eb"/><circle cx="656.15" cy="84.38" r="3" fill="#36a2eb"/><circle cx="781.12" cy="173.88" r="3" fill="#36a2eb"/></svg>
