<svg xmlns="http://www.w3.org/2000/svg" width="800" height="450" viewBox="0 0 800 450"><text x="400" y="24" font-family="Noto Sans JP, sans-serif" font-size="16" text-anchor="middle" fill="#666666">Weekly Activity Heatmap</text><rect x="74.21" y="36" width="143.56" height="128" fill="#a9d7f6"/><rect x="217.77" y="36" width="143.56" height="128" fill="#53afee"/><rect x="361.32" y="36" width="143.56" height="128" fill="#e2f2fc"/><rect x="504.88" y="36" width="143.56" height="128" fill="#6fbdf1"/><rect x="648.44" y="36" width="143.56" height="128" fill="#c6e4f9"/><rect x="74.21" y="164" width="143.56" height="128" fill="#36a2eb"/><rect x="217.77" y="164" width="143.56" height="128" fill="#ffffff"/><rect x="361.32" y="164" width="143.56" height="128" fill="#8ccaf4"/><rect x="504.88" y="164" width="143.56" height="128" fill="#53afee"/><rect x="648.44" y="164" width="143.56" height="128" fill="#a9d7f6"/><rect x="74.21" y="292" width="143.56" height="128" fill="#e2f2fc"/><rect x="217.77" y="292" width="143.56" height="128" fill="#6fbdf1"/><rect x="361.32" y="292" width="143.56" height="128" fill="#36a2eb"/><rect x="504.88" y="292" width="143.56" height="128" fill="#c6e4f9"/><rect x="648.44" y="292" width="143.56" height="128" fill="#8ccaf4"/><text x="145.99" y="435.4" font-family="Noto Sans JP, sans-serif" font-size="12" text-anchor="middle" fill="#666666">Mon</text><text x="289.55" y="435.4" font-family="Noto Sans JP, sans-serif" font-size="12" text-anchor="middle" fill="#666666">Tue</text><text x="433.1" y="435.4" font-family="Noto Sans JP, sans-serif" font-size="12" text-anchor="middle" fill="#666666">Wed</text><text x="576.66" y="435.4" font-family="Noto Sans JP, sans-serif" font-size="12" text-anchor="middle" fill="#666666">Thu</text><text x="720.22" y="435.4" font-family="Noto Sans JP, sans-serif" font-size="12" text-anchor="middle" fill="#666666">Fri</text><text x="68.21" y="104.2" font-family="Noto Sans JP, sans-serif" font-size="12" text-anchor="end" fill="#666666">Morning</text><text x="68.21" y="232.2" font-family="Noto Sans JP, sans-serif" font-size="12" text-anchor="end" fill="#666666">Afternoon</text><text x="68.21" y="360.2" font-family="Noto Sans JP, sans-serif" font-size="12" text-anchor="end" fill="#666666">Evening</text></svg>
