<svg xmlns="http://www.w3.org/2000/svg" width="800" height="450" viewBox="0 0 800 450"><text x="400" y="24" font-family="Noto Sans JP, sans-serif" font-size="16" text-anchor="middle" fill="#666666">Revenue: Actual vs. Target (bar + line)</text><line x1="37.98" y1="420" x2="792" y2="420" stroke="#e0e0e0" stroke-width="1"/><text x="31.98" y="424.2" font-family="Noto Sans JP, sans-serif" font-size="12" text-anchor="end" fill="#666666">0</text><line x1="37.98" y1="330.5" x2="792" y2="330.5" stroke="#e0e0e0" stroke-width="1"/><text x="31.98" y="334.7" font-family="Noto Sans JP, sans-serif" font-size="12" text-anchor="end" fill="#666666">100</text><line x1="37.98" y1="241" x2="792" y2="241" stroke="#e0e0e0" stroke-width="1"/><text x="31.98" y="245.2" font-family="Noto Sans JP, sans-serif" font-size="12" text-anchor="end" fill="#666666">200</text><line x1="37.98" y1="151.5" x2="792" y2="151.5" stroke="#e0e0e0" stroke-width="1"/><text x="31.98" y="155.7" font-family="Noto Sans JP, sans-serif" font-size="12" text-anchor="end" fill="#666666">300</text><line x1="37.98" y1="62" x2="792" y2="62" stroke="#e0e0e0" stroke-width="1"/><text x="31.98" y="66.2" font-family="Noto Sans JP, sans-serif" font-size="12" text-anchor="end" fill="#666666">400</text><line x1="37.98" y1="420" x2="792" y2="420" stroke="#666666" stroke-width="1"/><text x="100.81" y="435.4" font-family="Noto Sans JP, sans-serif" font-size="12" text-anchor="middle" fill="#666666">Jan</text><text x="226.48" y="435.4" font-family="Noto Sans JP, sans-serif" font-size="12" text-anchor="middle" fill="#666666">Feb</text><text x="352.15" y="435.4" font-family="Noto Sans JP, sans-serif" font-size="12" text-anchor="middle" fill="#666666">Mar</text><text x="477.82" y="435.4" font-family="Noto Sans JP, sans-serif" font-size="12" text-anchor="middle" fill="#666666">Apr</text><text x="603.49" y="435.4" font-family="Noto Sans JP, sans-serif" font-size="12" text-anchor="middle" fill="#666666">May</text><text x="729.16" y="435.4" font-family="Noto Sans JP, sans-serif" font-size="12" text-anchor="middle" fill="#666666">Jun</text><rect x="286.22" y="43" width="12" height="12" fill="#36a2eb"/><text x="302.22" y="53.2" font-family="Noto Sans JP, sans-serif" font-size="12" text-anchor="start" fill="#666666">Actual (10k JPY)</text><rect x="407.42" y="43" width="12" height="12" fill="#ff6384"/><text x="423.42" y="53.2" font-family="Noto Sans JP, sans-serif" font-size="12" text-anchor="start" fill="#666666">Target (10k JPY)</text><rect x="50.55" y="312.6" width="90.48" height="107.4" fill="#36a2eb"/><rect x="176.22" y="241" width="90.48" height="179" fill="#36a2eb"/><rect x="301.89" y="285.75" width="90.48" height="134.25" fill="#36a2eb"/><rect x="427.56" y="169.4" width="90.48" height="250.6" fill="#36a2eb"/><rect x="553.23" y="205.2" width="90.48" height="214.8" fill="#36a2eb"/><rect x="678.9" y="142.55" width="90.48" height="277.45" fill="#36a2eb"/><polyline points="100.81,285.75 226.48,258.9 352.15,241 477.82,196.25 603.49,187.3 729.16,151.5" fill="none" stroke="#ff6384" stroke-width="3"/><circle cx="100.81" cy="285.75" r="3" fill="#ff6384"/><circle cx="226.48" cy="258.9" r="3" fill="#ff6384"/><circle cx="352.15" cy="241" r="3" fill="#ff6384"/><circle cx="477.82" cy="196.25" r="3" fill="#ff6384"/><circle cx="603.49" cy="187.3" r="3" fill="#ff6384"/><circle cx="729.16" cy="151.5" r="3" fill="#ff6384"/></svg>
