<svg xmlns="http://www.w3.org/2000/svg" width="800" height="450" viewBox="0 0 800 450"><text x="400" y="24" font-family="Noto Sans JP, sans-serif" font-size="16" text-anchor="middle" fill="#666666">デバイス別アクセス割合</text><rect x="236" y="43" width="12" height="12" fill="#36a2eb"/><text x="252" y="53.2" font-family="Noto Sans JP, sans-serif" font-size="12" text-anchor="start" fill="#666666">デスクトップ</text><rect x="340" y="43" width="12" height="12" fill="#ff6384"/><text x="356" y="53.2" font-family="Noto Sans JP, sans-serif" font-size="12" text-anchor="start" fill="#666666">モバイル</text><rect x="420" y="43" width="12" height="12" fill="#ff9f40"/><text x="436" y="53.2" font-family="Noto Sans JP, sans-serif" font-size="12" text-anchor="start" fill="#666666">タブレット</text><rect x="512" y="43" width="12" height="12" fill="#ffcd56"/><text x="528" y="53.2" font-family="Noto Sans JP, sans-serif" font-size="12" text-anchor="start" fill="#666666">その他</text><path d="M 400 252 L 400 81 A 171 171 0 1 1 347.16 414.63 Z" fill="#36a2eb" stroke="#ffffff" stroke-width="1"/><path d="M 400 252 L 347.16 414.63 A 171 171 0 0 1 261.66 151.49 Z" fill="#ff6384" stroke="#ffffff" stroke-width="1"/><path d="M 400 252 L 261.66 151.49 A 171 171 0 0 1 367.96 84.03 Z" fill="#ff9f40" stroke="#ffffff" stroke-width="1"/><path d="M 400 252 L 367.96 84.03 A 171 171 0 0 1 400 81 Z" fill="#ffcd56" stroke="#ffffff" stroke-width="1"/></svg>
