<svg xmlns="http://www.w3.org/2000/svg" width="800" height="450" viewBox="0 0 800 450"><text x="400" y="24" font-family="Noto Sans JP, sans-serif" font-size="16" text-anchor="middle" fill="#666666">Temperature vs. Visitors (scatter)</text><line x1="31.32" y1="420" x2="792" y2="420" stroke="#e0e0e0" stroke-width="1"/><text x="25.32" y="424.2" font-family="Noto Sans JP, sans-serif" font-size="12" text-anchor="end" fill="#666666">0</text><line x1="31.32" y1="348.4" x2="792" y2="348.4" stroke="#e0e0e0" stroke-width="1"/><text x="25.32" y="352.6" font-family="Noto Sans JP, sans-serif" font-size="12" text-anchor="end" fill="#666666">5</text><line x1="31.32" y1="276.8" x2="792" y2="276.8" stroke="#e0e0e0" stroke-width="1"/><text x="25.32" y="281" font-family="Noto Sans JP, sans-serif" font-size="12" text-anchor="end" fill="#666666">10</text><line x1="31.32" y1="205.2" x2="792" y2="205.2" stroke="#e0e0e0" stroke-width="1"/><text x="25.32" y="209.4" font-family="Noto Sans JP, sans-serif" font-size="12" text-anchor="end" fill="#666666">15</text><line x1="31.32" y1="133.6" x2="792" y2="133.6" stroke="#e0e0e0" stroke-width="1"/><text x="25.32" y="137.8" font-family="Noto Sans JP, sans-serif" font-size="12" text-anchor="end" fill="#666666">20</text><line x1="31.32" y1="62" x2="792" y2="62" stroke="#e0e0e0" stroke-width="1"/><text x="25.32" y="66.2" font-family="Noto Sans JP, sans-serif" font-size="12" text-anchor="end" fill="#666666">25</text><line x1="31.32" y1="62" x2="31.32" y2="420" stroke="#e0e0e0" stroke-width="1"/><text x="31.32" y="435.4" font-family="Noto Sans JP, sans-serif" font-size="12" text-anchor="middle" fill="#666666">10</text><line x1="284.88" y1="62" x2="284.88" y2="420" stroke="#e0e0e0" stroke-width="1"/><text x="284.88" y="435.4" font-family="Noto Sans JP, sans-serif" font-size="12" text-anchor="middle" fill="#666666">20</text><line x1="538.44" y1="62" x2="538.44" y2="420" stroke="#e0e0e0" stroke-width="1"/><text x="538.44" y="435.4" font-family="Noto Sans JP, sans-serif" font-size="12" text-anchor="middle" fill="#666666">30</text><line x1="792" y1="62" x2="792" y2="420" stroke="#e0e0e0" stroke-width="1"/><text x="792" y="435.4" font-family="Noto Sans JP, sans-serif" font-size="12" text-anchor="middle" fill="#666666">40</text><line x1="31.32" y1="420" x2="792" y2="420" stroke="#666666" stroke-width="1"/><line x1="31.32" y1="62" x2="31.32" y2="420" stroke="#666666" stroke-width="1"/><circle cx="82.03" cy="362.72" r="3" fill="#36a2eb"/><circle cx="234.17" cy="319.76" r="3" fill="#36a2eb"/><circle cx="411.66" cy="291.12" r="3" fill="#36a2eb"/><circle cx="538.44" cy="219.52" r="3" fill="#36a2eb"/><circle cx="614.51" cy="233.84" r="3" fill="#36a2eb"/><circle cx="741.29" cy="147.92" r="3" fill="#36a2eb"/><circle cx="31.32" cy="291.12" r="3" fill="#ff6384"/><circle cx="183.46" cy="248.16" r="3" fill="#ff6384"/><circle cx="335.59" cy="262.48" r="3" fill="#ff6384"/><circle cx="487.73" cy="176.56" r="3" fill="#ff6384"/><circle cx="665.22" cy="104.96" r="3" fill="#ff6384"/><circle cx="792" cy="76.32" r="3" fill="#ff6384"/><rect x="335.47" y="43" width="12" height="12" fill="#36a2eb"/><text x="351.47" y="53.2" font-family="Noto Sans JP, sans-serif" font-size="12" text-anchor="start" fill="#666666">Store A</text><rect x="407.71" y="43" width="12" height="12" fill="#ff6384"/><text x="423.71" y="53.2" font-family="Noto Sans JP, sans-serif" font-size="12" text-anchor="start" fill="#666666">Store B</text></svg>
