<svg xmlns="http://www.w3.org/2000/svg" width="800" height="450" viewBox="0 0 800 450"><text x="400" y="24" font-family="Noto Sans JP, sans-serif" font-size="16" text-anchor="middle" fill="#666666">四半期売上の内訳（積み上げ棒）</text><line x1="37.98" y1="420" x2="792" y2="420" stroke="#e0e0e0" stroke-width="1"/><text x="31.98" y="424.2" font-family="Noto Sans JP, sans-serif" font-size="12" text-anchor="end" fill="#666666">0</text><line x1="37.98" y1="348.4" x2="792" y2="348.4" stroke="#e0e0e0" stroke-width="1"/><text x="31.98" y="352.6" font-family="Noto Sans JP, sans-serif" font-size="12" text-anchor="end" fill="#666666">100</text><line x1="37.98" y1="276.8" x2="792" y2="276.8" stroke="#e0e0e0" stroke-width="1"/><text x="31.98" y="281" font-family="Noto Sans JP, sans-serif" font-size="12" text-anchor="end" fill="#666666">200</text><line x1="37.98" y1="205.2" x2="792" y2="205.2" stroke="#e0e0e0" stroke-width="1"/><text x="31.98" y="209.4" font-family="Noto Sans JP, sans-serif" font-size="12" text-anchor="end" fill="#666666">300</text><line x1="37.98" y1="133.6" x2="792" y2="133.6" stroke="#e0e0e0" stroke-width="1"/><text x="31.98" y="137.8" font-family="Noto Sans JP, sans-serif" font-size="12" text-anchor="end" fill="#666666">400</text><line x1="37.98" y1="62" x2="792" y2="62" stroke="#e0e0e0" stroke-width="1"/><text x="31.98" y="66.2" font-family="Noto Sans JP, sans-serif" font-size="12" text-anchor="end" fill="#666666">500</text><line x1="37.98" y1="420" x2="792" y2="420" stroke="#666666" stroke-width="1"/><text x="132.23" y="435.4" font-family="Noto Sans JP, sans-serif" font-size="12" text-anchor="middle" fill="#666666">Q1</text><text x="320.74" y="435.4" font-family="Noto Sans JP, sans-serif" font-size="12" text-anchor="middle" fill="#666666">Q2</text><text x="509.24" y="435.4" font-family="Noto Sans JP, sans-serif" font-size="12" text-anchor="middle" fill="#666666">Q3</text><text x="697.75" y="435.4" font-family="Noto Sans JP, sans-serif" font-size="12" text-anchor="middle" fill="#666666">Q4</text><rect x="312.58" y="43" width="12" height="12" fill="#36a2eb"/><text x="328.58" y="53.2" font-family="Noto Sans JP, sans-serif" font-size="12" text-anchor="start" fill="#666666">製品A</text><rect x="375.88" y="43" width="12" height="12" fill="#ff6384"/><text x="391.88" y="53.2" font-family="Noto Sans JP, sans-serif" font-size="12" text-anchor="start" fill="#666666">製品B</text><rect x="439.76" y="43" width="12" height="12" fill="#4bc0c0"/><text x="455.76" y="53.2" font-family="Noto Sans JP, sans-serif" font-size="12" text-anchor="start" fill="#666666">製品C</text><rect x="56.83" y="334.08" width="135.72" height="85.92" fill="#36a2eb"/><rect x="56.83" y="276.8" width="135.72" height="57.28" fill="#ff6384"/><rect x="56.83" y="248.16" width="135.72" height="28.64" fill="#4bc0c0"/><rect x="245.34" y="312.6" width="135.72" height="107.4" fill="#36a2eb"/><rect x="245.34" y="248.16" width="135.72" height="64.44" fill="#ff6384"/><rect x="245.34" y="205.2" width="135.72" height="42.96" fill="#4bc0c0"/><rect x="433.84" y="291.12" width="135.72" height="128.88" fill="#36a2eb"/><rect x="433.84" y="205.2" width="135.72" height="85.92" fill="#ff6384"/><rect x="433.84" y="155.08" width="135.72" height="50.12" fill="#4bc0c0"/><rect x="622.35" y="269.64" width="135.72" height="150.36" fill="#36a2eb"/><rect x="622.35" y="169.4" width="135.72" height="100.24" fill="#ff6384"/><rect x="622.35" y="104.96" width="135.72" height="64.44" fill="#4bc0c0"/></svg>
