<svg xmlns="http://www.w3.org/2000/svg" width="800" height="450" viewBox="0 0 800 450"><rect x="0" y="0" width="800" height="450" fill="#1e2330"/><text x="400" y="24" font-family="Noto Sans JP, sans-serif" font-size="16" text-anchor="middle" fill="#e6e6e6">Monthly Avg. Temperature (dark theme)</text><line x1="35.48" y1="420" x2="792" y2="420" stroke="#3a4256" stroke-width="1"/><text x="29.48" y="424.2" font-family="Noto Sans JP, sans-serif" font-size="12" text-anchor="end" fill="#e6e6e6">-10</text><line x1="35.48" y1="330.5" x2="792" y2="330.5" stroke="#3a4256" stroke-width="1"/><text x="29.48" y="334.7" font-family="Noto Sans JP, sans-serif" font-size="12" text-anchor="end" fill="#e6e6e6">0</text><line x1="35.48" y1="241" x2="792" y2="241" stroke="#3a4256" stroke-width="1"/><text x="29.48" y="245.2" font-family="Noto Sans JP, sans-serif" font-size="12" text-anchor="end" fill="#e6e6e6">10</text><line x1="35.48" y1="151.5" x2="792" y2="151.5" stroke="#3a4256" stroke-width="1"/><text x="29.48" y="155.7" font-family="Noto Sans JP, sans-serif" font-size="12" text-anchor="end" fill="#e6e6e6">20</text><line x1="35.48" y1="62" x2="792" y2="62" stroke="#3a4256" stroke-width="1"/><text x="29.48" y="66.2" font-family="Noto Sans JP, sans-serif" font-size="12" text-anchor="end" fill="#e6e6e6">30</text><line x1="35.48" y1="420" x2="792" y2="420" stroke="#e6e6e6" stroke-width="1"/><text x="98.53" y="435.4" font-family="Noto Sans JP, sans-serif" font-size="12" text-anchor="middle" fill="#e6e6e6">Jan</text><text x="224.61" y="435.4" font-family="Noto Sans JP, sans-serif" font-size="12" text-anchor="middle" fill="#e6e6e6">Feb</text><text x="350.7" y="435.4" font-family="Noto Sans JP, sans-serif" font-size="12" text-anchor="middle" fill="#e6e6e6">Mar</text><text x="476.78" y="435.4" font-family="Noto Sans JP, sans-serif" font-size="12" text-anchor="middle" fill="#e6e6e6">Apr</text><text x="602.87" y="435.4" font-family="Noto Sans JP, sans-serif" font-size="12" text-anchor="middle" fill="#e6e6e6">May</text><text x="728.96" y="435.4" font-family="Noto Sans JP, sans-serif" font-size="12" text-anchor="middle" fill="#e6e6e6">Jun</text><rect x="334.7" y="43" width="12" height="12" fill="#ffcd56"/><text x="350.7" y="53.2" font-family="Noto Sans JP, sans-serif" font-size="12" text-anchor="start" fill="#e6e6e6">Tokyo</text><rect x="401.31" y="43" width="12" height="12" fill="#4bc0c0"/><text x="417.31" y="53.2" font-family="Noto Sans JP, sans-serif" font-size="12" text-anchor="start" fill="#e6e6e6">Sapporo</text><path d="M 98.53 285.75 C 106.93 284.56 207.8 271.43 224.61 267.85 C 241.42 264.27 333.89 238.02 350.7 232.05 C 367.51 226.08 459.97 184.91 476.78 178.35 C 493.6 171.79 586.06 138.37 602.87 133.6 C 619.68 128.83 720.55 108.54 728.96 106.75 " fill="none" stroke="#ffcd56" stroke-width="3"/><circle cx="98.53" cy="285.75" r="3" fill="#ffcd56"/><circle cx="224.61" cy="267.85" r="3" fill="#ffcd56"/><circle cx="350.7" cy="232.05" r="3" fill="#ffcd56"/><circle cx="476.78" cy="178.35" r="3" fill="#ffcd56"/><circle cx="602.87" cy="133.6" r="3" fill="#ffcd56"/><circle cx="728.96" cy="106.75" r="3" fill="#ffcd56"/><path d="M 98.53 357.35 C 106.93 356.75 207.8 351.98 224.61 348.4 C 241.42 344.82 333.89 310.81 350.7 303.65 C 367.51 296.49 459.97 248.76 476.78 241 C 493.6 233.24 586.06 193.27 602.87 187.3 C 619.68 181.33 720.55 153.89 728.96 151.5 " fill="none" stroke="#4bc0c0" stroke-width="3"/><circle cx="98.53" cy="357.35" r="3" fill="#4bc0c0"/><circle cx="224.61" cy="348.4" r="3" fill="#4bc0c0"/><circle cx="350.7" cy="303.65" r="3" fill="#4bc0c0"/><circle cx="476.78" cy="241" r="3" fill="#4bc0c0"/><circle cx="602.87" cy="187.3" r="3" fill="#4bc0c0"/><circle cx="728.96" cy="151.5" r="3" fill="#4bc0c0"/></svg>
