<svg xmlns="http://www.w3.org/2000/svg" width="800" height="450" viewBox="0 0 800 450"><rect x="0" y="0" width="800" height="450" fill="#ffffff"/><text x="400" y="24" font-family="Noto Sans JP, sans-serif" font-size="16" text-anchor="middle" fill="#333333">Monthly Temperature by City (Vega-Lite line)</text><line x1="34.03" y1="420" x2="792" y2="420" stroke="#dddddd" stroke-width="1"/><text x="28.03" y="423.85" font-family="Noto Sans JP, sans-serif" font-size="11" text-anchor="end" fill="#333333">-10</text><line x1="34.03" y1="330.5" x2="792" y2="330.5" stroke="#dddddd" stroke-width="1"/><text x="28.03" y="334.35" font-family="Noto Sans JP, sans-serif" font-size="11" text-anchor="end" fill="#333333">0</text><line x1="34.03" y1="241" x2="792" y2="241" stroke="#dddddd" stroke-width="1"/><text x="28.03" y="244.85" font-family="Noto Sans JP, sans-serif" font-size="11" text-anchor="end" fill="#333333">10</text><line x1="34.03" y1="151.5" x2="792" y2="151.5" stroke="#dddddd" stroke-width="1"/><text x="28.03" y="155.35" font-family="Noto Sans JP, sans-serif" font-size="11" text-anchor="end" fill="#333333">20</text><line x1="34.03" y1="62" x2="792" y2="62" stroke="#dddddd" stroke-width="1"/><text x="28.03" y="65.85" font-family="Noto Sans JP, sans-serif" font-size="11" text-anchor="end" fill="#333333">30</text><line x1="34.03" y1="420" x2="792" y2="420" stroke="#333333" stroke-width="1"/><text x="65.61" y="435.4" font-family="Noto Sans JP, sans-serif" font-size="11" text-anchor="middle" fill="#333333">Jan</text><text x="128.77" y="435.4" font-family="Noto Sans JP, sans-serif" font-size="11" text-anchor="middle" fill="#333333">Feb</text><text x="191.94" y="435.4" font-family="Noto Sans JP, sans-serif" font-size="11" text-anchor="middle" fill="#333333">Mar</text><text x="255.1" y="435.4" font-family="Noto Sans JP, sans-serif" font-size="11" text-anchor="middle" fill="#333333">Apr</text><text x="318.27" y="435.4" font-family="Noto Sans JP, sans-serif" font-size="11" text-anchor="middle" fill="#333333">May</text><text x="381.43" y="435.4" font-family="Noto Sans JP, sans-serif" font-size="11" text-anchor="middle" fill="#333333">Jun</text><text x="444.6" y="435.4" font-family="Noto Sans JP, sans-serif" font-size="11" text-anchor="middle" fill="#333333">Jul</text><text x="507.76" y="435.4" font-family="Noto Sans JP, sans-serif" font-size="11" text-anchor="middle" fill="#333333">Aug</text><text x="570.92" y="435.4" font-family="Noto Sans JP, sans-serif" font-size="11" text-anchor="middle" fill="#333333">Sep</text><text x="634.09" y="435.4" font-family="Noto Sans JP, sans-serif" font-size="11" text-anchor="middle" fill="#333333">Oct</text><text x="697.25" y="435.4" font-family="Noto Sans JP, sans-serif" font-size="11" text-anchor="middle" fill="#333333">Nov</text><text x="760.42" y="435.4" font-family="Noto Sans JP, sans-serif" font-size="11" text-anchor="middle" fill="#333333">Dec</text><rect x="341.32" y="43" width="12" height="12" fill="#4c78a8"/><text x="357.32" y="52.85" font-family="Noto Sans JP, sans-serif" font-size="11" text-anchor="start" fill="#333333">Tokyo</text><rect x="405.04" y="43" width="12" height="12" fill="#f58518"/><text x="421.04" y="52.85" font-family="Noto Sans JP, sans-serif" font-size="11" text-anchor="start" fill="#333333">Sydney</text><polyline points="65.61,303.65 128.77,294.7 191.94,258.9 255.1,205.2 318.27,160.45 381.43,124.65 444.6,88.85 507.76,79.9 570.92,115.7 634.09,169.4 697.25,223.1 760.42,276.8" fill="none" stroke="#4c78a8" stroke-width="3"/><circle cx="65.61" cy="303.65" r="3" fill="#4c78a8"/><circle cx="128.77" cy="294.7" r="3" fill="#4c78a8"/><circle cx="191.94" cy="258.9" r="3" fill="#4c78a8"/><circle cx="255.1" cy="205.2" r="3" fill="#4c78a8"/><circle cx="318.27" cy="160.45" r="3" fill="#4c78a8"/><circle cx="381.43" cy="124.65" r="3" fill="#4c78a8"/><circle cx="444.6" cy="88.85" r="3" fill="#4c78a8"/><circle cx="507.76" cy="79.9" r="3" fill="#4c78a8"/><circle cx="570.92" cy="115.7" r="3" fill="#4c78a8"/><circle cx="634.09" cy="169.4" r="3" fill="#4c78a8"/><circle cx="697.25" cy="223.1" r="3" fill="#4c78a8"/><circle cx="760.42" cy="276.8" r="3" fill="#4c78a8"/><polyline points="65.61,249.95 128.77,249.95 191.94,267.85 255.1,285.75 318.27,312.6 381.43,330.5 444.6,339.45 507.76,330.5 570.92,303.65 634.09,276.8 697.25,258.9 760.42,249.95" fill="none" stroke="#f58518" stroke-width="3"/><circle cx="65.61" cy="249.95" r="3" fill="#f58518"/><circle cx="128.77" cy="249.95" r="3" fill="#f58518"/><circle cx="191.94" cy="267.85" r="3" fill="#f58518"/><circle cx="255.1" cy="285.75" r="3" fill="#f58518"/><circle cx="318.27" cy="312.6" r="3" fill="#f58518"/><circle cx="381.43" cy="330.5" r="3" fill="#f58518"/><circle cx="444.6" cy="339.45" r="3" fill="#f58518"/><circle cx="507.76" cy="330.5" r="3" fill="#f58518"/><circle cx="570.92" cy="303.65" r="3" fill="#f58518"/><circle cx="634.09" cy="276.8" r="3" fill="#f58518"/><circle cx="697.25" cy="258.9" r="3" fill="#f58518"/><circle cx="760.42" cy="249.95" r="3" fill="#f58518"/></svg>
