<svg xmlns="http://www.w3.org/2000/svg" width="800" height="450" viewBox="0 0 800 450"><text x="400" y="24" font-family="Noto Sans JP, sans-serif" font-size="16" text-anchor="middle" fill="#666666">Quarterly Sales by Region (Vega-Lite input)</text><line x1="37.98" y1="420" x2="792" y2="420" stroke="#e0e0e0" stroke-width="1"/><text x="31.98" y="424.2" font-family="Noto Sans JP, sans-serif" font-size="12" text-anchor="end" fill="#666666">0</text><line x1="37.98" y1="330.5" x2="792" y2="330.5" stroke="#e0e0e0" stroke-width="1"/><text x="31.98" y="334.7" font-family="Noto Sans JP, sans-serif" font-size="12" text-anchor="end" fill="#666666">50</text><line x1="37.98" y1="241" x2="792" y2="241" stroke="#e0e0e0" stroke-width="1"/><text x="31.98" y="245.2" font-family="Noto Sans JP, sans-serif" font-size="12" text-anchor="end" fill="#666666">100</text><line x1="37.98" y1="151.5" x2="792" y2="151.5" stroke="#e0e0e0" stroke-width="1"/><text x="31.98" y="155.7" font-family="Noto Sans JP, sans-serif" font-size="12" text-anchor="end" fill="#666666">150</text><line x1="37.98" y1="62" x2="792" y2="62" stroke="#e0e0e0" stroke-width="1"/><text x="31.98" y="66.2" font-family="Noto Sans JP, sans-serif" font-size="12" text-anchor="end" fill="#666666">200</text><line x1="37.98" y1="420" x2="792" y2="420" stroke="#666666" stroke-width="1"/><text x="163.65" y="435.4" font-family="Noto Sans JP, sans-serif" font-size="12" text-anchor="middle" fill="#666666">Q1</text><text x="414.99" y="435.4" font-family="Noto Sans JP, sans-serif" font-size="12" text-anchor="middle" fill="#666666">Q2</text><text x="666.33" y="435.4" font-family="Noto Sans JP, sans-serif" font-size="12" text-anchor="middle" fill="#666666">Q3</text><rect x="350.36" y="43" width="12" height="12" fill="#36a2eb"/><text x="366.36" y="53.2" font-family="Noto Sans JP, sans-serif" font-size="12" text-anchor="start" fill="#666666">East</text><rect x="406.32" y="43" width="12" height="12" fill="#ff6384"/><text x="422.32" y="53.2" font-family="Noto Sans JP, sans-serif" font-size="12" text-anchor="start" fill="#666666">West</text><rect x="63.11" y="205.2" width="90.48" height="214.8" fill="#36a2eb"/><rect x="163.65" y="258.9" width="90.48" height="161.1" fill="#ff6384"/><rect x="314.45" y="151.5" width="90.48" height="268.5" fill="#36a2eb"/><rect x="414.99" y="223.1" width="90.48" height="196.9" fill="#ff6384"/><rect x="565.79" y="97.8" width="90.48" height="322.2" fill="#36a2eb"/><rect x="666.33" y="187.3" width="90.48" height="232.7" fill="#ff6384"/></svg>
