<svg xmlns="http://www.w3.org/2000/svg" width="800" height="450" viewBox="0 0 800 450"><rect x="0" y="0" width="800" height="450" fill="#ffffff"/><text x="400" y="24" font-family="Noto Sans JP, sans-serif" font-size="16" text-anchor="middle" fill="#333333">Quarterly Sales by Region (Vega-Lite input)</text><line x1="36.32" y1="420" x2="792" y2="420" stroke="#dddddd" stroke-width="1"/><text x="30.32" y="423.85" font-family="Noto Sans JP, sans-serif" font-size="11" text-anchor="end" fill="#333333">0</text><line x1="36.32" y1="330.5" x2="792" y2="330.5" stroke="#dddddd" stroke-width="1"/><text x="30.32" y="334.35" font-family="Noto Sans JP, sans-serif" font-size="11" text-anchor="end" fill="#333333">50</text><line x1="36.32" y1="241" x2="792" y2="241" stroke="#dddddd" stroke-width="1"/><text x="30.32" y="244.85" font-family="Noto Sans JP, sans-serif" font-size="11" text-anchor="end" fill="#333333">100</text><line x1="36.32" y1="151.5" x2="792" y2="151.5" stroke="#dddddd" stroke-width="1"/><text x="30.32" y="155.35" font-family="Noto Sans JP, sans-serif" font-size="11" text-anchor="end" fill="#333333">150</text><line x1="36.32" y1="62" x2="792" y2="62" stroke="#dddddd" stroke-width="1"/><text x="30.32" y="65.85" font-family="Noto Sans JP, sans-serif" font-size="11" text-anchor="end" fill="#333333">200</text><line x1="36.32" y1="420" x2="792" y2="420" stroke="#333333" stroke-width="1"/><text x="162.26" y="435.4" font-family="Noto Sans JP, sans-serif" font-size="11" text-anchor="middle" fill="#333333">Q1</text><text x="414.16" y="435.4" font-family="Noto Sans JP, sans-serif" font-size="11" text-anchor="middle" fill="#333333">Q2</text><text x="666.05" y="435.4" font-family="Noto Sans JP, sans-serif" font-size="11" text-anchor="middle" fill="#333333">Q3</text><rect x="352.49" y="43" width="12" height="12" fill="#4c78a8"/><text x="368.49" y="52.85" font-family="Noto Sans JP, sans-serif" font-size="11" text-anchor="start" fill="#333333">East</text><rect x="406.46" y="43" width="12" height="12" fill="#f58518"/><text x="422.46" y="52.85" font-family="Noto Sans JP, sans-serif" font-size="11" text-anchor="start" fill="#333333">West</text><rect x="61.5" y="205.2" width="90.68" height="214.8" fill="#4c78a8"/><rect x="162.26" y="258.9" width="90.68" height="161.1" fill="#f58518"/><rect x="313.4" y="151.5" width="90.68" height="268.5" fill="#4c78a8"/><rect x="414.16" y="223.1" width="90.68" height="196.9" fill="#f58518"/><rect x="565.29" y="97.8" width="90.68" height="322.2" fill="#4c78a8"/><rect x="666.05" y="187.3" width="90.68" height="232.7" fill="#f58518"/></svg>
