<svg xmlns="http://www.w3.org/2000/svg" width="800" height="450" viewBox="0 0 800 450"><rect x="0" y="0" width="800" height="450" fill="#ffffff"/><text x="400" y="24" font-family="Noto Sans JP, sans-serif" font-size="16" text-anchor="middle" fill="#333333">Global Energy Mix 2023 (Vega-Lite arc)</text><rect x="177.64" y="43" width="12" height="12" fill="#4c78a8"/><text x="193.64" y="52.85" font-family="Noto Sans JP, sans-serif" font-size="11" text-anchor="start" fill="#333333">Coal</text><rect x="232.64" y="43" width="12" height="12" fill="#f58518"/><text x="248.64" y="52.85" font-family="Noto Sans JP, sans-serif" font-size="11" text-anchor="start" fill="#333333">Natural Gas</text><rect x="324.58" y="43" width="12" height="12" fill="#e45756"/><text x="340.58" y="52.85" font-family="Noto Sans JP, sans-serif" font-size="11" text-anchor="start" fill="#333333">Hydro</text><rect x="388.07" y="43" width="12" height="12" fill="#72b7b2"/><text x="404.07" y="52.85" font-family="Noto Sans JP, sans-serif" font-size="11" text-anchor="start" fill="#333333">Nuclear</text><rect x="459.99" y="43" width="12" height="12" fill="#54a24b"/><text x="475.99" y="52.85" font-family="Noto Sans JP, sans-serif" font-size="11" text-anchor="start" fill="#333333">Wind</text><rect x="518.21" y="43" width="12" height="12" fill="#eeca3b"/><text x="534.21" y="52.85" font-family="Noto Sans JP, sans-serif" font-size="11" text-anchor="start" fill="#333333">Solar</text><rect x="577.01" y="43" width="12" height="12" fill="#b279a2"/><text x="593.01" y="52.85" font-family="Noto Sans JP, sans-serif" font-size="11" text-anchor="start" fill="#333333">Other</text><path d="M 400 252 L 400 81 A 171 171 0 0 1 535.77 355.96 Z" fill="#4c78a8" stroke="#ffffff" stroke-width="1"/><path d="M 400 252 L 535.77 355.96 A 171 171 0 0 1 318.56 402.36 Z" fill="#f58518" stroke="#ffffff" stroke-width="1"/><path d="M 400 252 L 318.56 402.36 A 171 171 0 0 1 230.49 274.5 Z" fill="#e45756" stroke="#ffffff" stroke-width="1"/><path d="M 400 252 L 230.49 274.5 A 171 171 0 0 1 245.74 178.22 Z" fill="#72b7b2" stroke="#ffffff" stroke-width="1"/><path d="M 400 252 L 245.74 178.22 A 171 171 0 0 1 298.62 114.29 Z" fill="#54a24b" stroke="#ffffff" stroke-width="1"/><path d="M 400 252 L 298.62 114.29 A 171 171 0 0 1 351.26 88.09 Z" fill="#eeca3b" stroke="#ffffff" stroke-width="1"/><path d="M 400 252 L 351.26 88.09 A 171 171 0 0 1 400 81 Z" fill="#b279a2" stroke="#ffffff" stroke-width="1"/></svg>
