<svg xmlns="http://www.w3.org/2000/svg" width="800" height="450" viewBox="0 0 800 450"><rect x="0" y="0" width="800" height="450" fill="#ffffff"/><text x="400" y="24" font-family="Noto Sans JP, sans-serif" font-size="16" text-anchor="middle" fill="#333333">Engine Displacement vs. Fuel Efficiency (Vega-Lite scatter)</text><line x1="30.21" y1="420" x2="792" y2="420" stroke="#dddddd" stroke-width="1"/><text x="24.21" y="423.85" font-family="Noto Sans JP, sans-serif" font-size="11" text-anchor="end" fill="#333333">10</text><line x1="30.21" y1="360.33" x2="792" y2="360.33" stroke="#dddddd" stroke-width="1"/><text x="24.21" y="364.18" font-family="Noto Sans JP, sans-serif" font-size="11" text-anchor="end" fill="#333333">15</text><line x1="30.21" y1="300.67" x2="792" y2="300.67" stroke="#dddddd" stroke-width="1"/><text x="24.21" y="304.52" font-family="Noto Sans JP, sans-serif" font-size="11" text-anchor="end" fill="#333333">20</text><line x1="30.21" y1="241" x2="792" y2="241" stroke="#dddddd" stroke-width="1"/><text x="24.21" y="244.85" font-family="Noto Sans JP, sans-serif" font-size="11" text-anchor="end" fill="#333333">25</text><line x1="30.21" y1="181.33" x2="792" y2="181.33" stroke="#dddddd" stroke-width="1"/><text x="24.21" y="185.18" font-family="Noto Sans JP, sans-serif" font-size="11" text-anchor="end" fill="#333333">30</text><line x1="30.21" y1="121.67" x2="792" y2="121.67" stroke="#dddddd" stroke-width="1"/><text x="24.21" y="125.52" font-family="Noto Sans JP, sans-serif" font-size="11" text-anchor="end" fill="#333333">35</text><line x1="30.21" y1="62" x2="792" y2="62" stroke="#dddddd" stroke-width="1"/><text x="24.21" y="65.85" font-family="Noto Sans JP, sans-serif" font-size="11" text-anchor="end" fill="#333333">40</text><line x1="30.21" y1="62" x2="30.21" y2="420" stroke="#dddddd" stroke-width="1"/><text x="30.21" y="435.4" font-family="Noto Sans JP, sans-serif" font-size="11" text-anchor="middle" fill="#333333">1</text><line x1="220.66" y1="62" x2="220.66" y2="420" stroke="#dddddd" stroke-width="1"/><text x="220.66" y="435.4" font-family="Noto Sans JP, sans-serif" font-size="11" text-anchor="middle" fill="#333333">2</text><line x1="411.11" y1="62" x2="411.11" y2="420" stroke="#dddddd" stroke-width="1"/><text x="411.11" y="435.4" font-family="Noto Sans JP, sans-serif" font-size="11" text-anchor="middle" fill="#333333">3</text><line x1="601.55" y1="62" x2="601.55" y2="420" stroke="#dddddd" stroke-width="1"/><text x="601.55" y="435.4" font-family="Noto Sans JP, sans-serif" font-size="11" text-anchor="middle" fill="#333333">4</text><line x1="792" y1="62" x2="792" y2="420" stroke="#dddddd" stroke-width="1"/><text x="792" y="435.4" font-family="Noto Sans JP, sans-serif" font-size="11" text-anchor="middle" fill="#333333">5</text><line x1="30.21" y1="420" x2="792" y2="420" stroke="#333333" stroke-width="1"/><line x1="30.21" y1="62" x2="30.21" y2="420" stroke="#333333" stroke-width="1"/><circle cx="182.57" cy="157.47" r="3" fill="#4c78a8"/><circle cx="220.66" cy="205.2" r="3" fill="#4c78a8"/><circle cx="144.48" cy="121.67" r="3" fill="#4c78a8"/><circle cx="296.84" cy="229.07" r="3" fill="#4c78a8"/><circle cx="411.11" cy="276.8" r="3" fill="#4c78a8"/><circle cx="125.43" cy="85.87" r="3" fill="#4c78a8"/><circle cx="315.88" cy="241" r="3" fill="#4c78a8"/><circle cx="506.33" cy="324.53" r="3" fill="#f58518"/><circle cx="601.55" cy="348.4" r="3" fill="#f58518"/><circle cx="792" cy="384.2" r="3" fill="#f58518"/><circle cx="411.11" cy="300.67" r="3" fill="#f58518"/><circle cx="715.82" cy="372.27" r="3" fill="#f58518"/><circle cx="373.02" cy="264.87" r="3" fill="#f58518"/><circle cx="563.46" cy="336.47" r="3" fill="#f58518"/><circle cx="220.66" cy="181.33" r="3" fill="#e45756"/><circle cx="201.61" cy="145.53" r="3" fill="#e45756"/><circle cx="258.75" cy="217.13" r="3" fill="#e45756"/><circle cx="144.48" cy="109.73" r="3" fill="#e45756"/><circle cx="315.88" cy="252.93" r="3" fill="#e45756"/><circle cx="411.11" cy="288.73" r="3" fill="#e45756"/><rect x="315.01" y="43" width="12" height="12" fill="#4c78a8"/><text x="331.01" y="52.85" font-family="Noto Sans JP, sans-serif" font-size="11" text-anchor="start" fill="#333333">Japan</text><rect x="378.81" y="43" width="12" height="12" fill="#f58518"/><text x="394.81" y="52.85" font-family="Noto Sans JP, sans-serif" font-size="11" text-anchor="start" fill="#333333">USA</text><rect x="431.99" y="43" width="12" height="12" fill="#e45756"/><text x="447.99" y="52.85" font-family="Noto Sans JP, sans-serif" font-size="11" text-anchor="start" fill="#333333">Europe</text></svg>
