<svg xmlns="http://www.w3.org/2000/svg" width="800" height="450" viewBox="0 0 800 450"><text x="400" y="24" font-family="Noto Sans JP, sans-serif" font-size="16" text-anchor="middle" fill="#666666">Weekly Temperature (°C)</text><line x1="31.32" y1="420" x2="792" y2="420" stroke="#e0e0e0" stroke-width="1"/><text x="25.32" y="424.2" font-family="Noto Sans JP, sans-serif" font-size="12" text-anchor="end" fill="#666666">12</text><line x1="31.32" y1="375.25" x2="792" y2="375.25" stroke="#e0e0e0" stroke-width="1"/><text x="25.32" y="379.45" font-family="Noto Sans JP, sans-serif" font-size="12" text-anchor="end" fill="#666666">14</text><line x1="31.32" y1="330.5" x2="792" y2="330.5" stroke="#e0e0e0" stroke-width="1"/><text x="25.32" y="334.7" font-family="Noto Sans JP, sans-serif" font-size="12" text-anchor="end" fill="#666666">16</text><line x1="31.32" y1="285.75" x2="792" y2="285.75" stroke="#e0e0e0" stroke-width="1"/><text x="25.32" y="289.95" font-family="Noto Sans JP, sans-serif" font-size="12" text-anchor="end" fill="#666666">18</text><line x1="31.32" y1="241" x2="792" y2="241" stroke="#e0e0e0" stroke-width="1"/><text x="25.32" y="245.2" font-family="Noto Sans JP, sans-serif" font-size="12" text-anchor="end" fill="#666666">20</text><line x1="31.32" y1="196.25" x2="792" y2="196.25" stroke="#e0e0e0" stroke-width="1"/><text x="25.32" y="200.45" font-family="Noto Sans JP, sans-serif" font-size="12" text-anchor="end" fill="#666666">22</text><line x1="31.32" y1="151.5" x2="792" y2="151.5" stroke="#e0e0e0" stroke-width="1"/><text x="25.32" y="155.7" font-family="Noto Sans JP, sans-serif" font-size="12" text-anchor="end" fill="#666666">24</text><line x1="31.32" y1="106.75" x2="792" y2="106.75" stroke="#e0e0e0" stroke-width="1"/><text x="25.32" y="110.95" font-family="Noto Sans JP, sans-serif" font-size="12" text-anchor="end" fill="#666666">26</text><line x1="31.32" y1="62" x2="792" y2="62" stroke="#e0e0e0" stroke-width="1"/><text x="25.32" y="66.2" font-family="Noto Sans JP, sans-serif" font-size="12" text-anchor="end" fill="#666666">28</text><line x1="31.32" y1="420" x2="792" y2="420" stroke="#666666" stroke-width="1"/><text x="31.32" y="435.4" font-family="Noto Sans JP, sans-serif" font-size="12" text-anchor="middle" fill="#666666">Mon</text><text x="158.1" y="435.4" font-family="Noto Sans JP, sans-serif" font-size="12" text-anchor="middle" fill="#666666">Tue</text><text x="284.88" y="435.4" font-family="Noto Sans JP, sans-serif" font-size="12" text-anchor="middle" fill="#666666">Wed</text><text x="411.66" y="435.4" font-family="Noto Sans JP, sans-serif" font-size="12" text-anchor="middle" fill="#666666">Thu</text><text x="538.44" y="435.4" font-family="Noto Sans JP, sans-serif" font-size="12" text-anchor="middle" fill="#666666">Fri</text><text x="665.22" y="435.4" font-family="Noto Sans JP, sans-serif" font-size="12" text-anchor="middle" fill="#666666">Sat</text><text x="792" y="435.4" font-family="Noto Sans JP, sans-serif" font-size="12" text-anchor="middle" fill="#666666">Sun</text><rect x="341.37" y="43" width="12" height="12" fill="#000000" fill-opacity="0.1"/><text x="357.37" y="53.2" font-family="Noto Sans JP, sans-serif" font-size="12" text-anchor="start" fill="#666666">Tokyo</text><rect x="407.98" y="43" width="12" height="12" fill="#000000" fill-opacity="0.1"/><text x="423.98" y="53.2" font-family="Noto Sans JP, sans-serif" font-size="12" text-anchor="start" fill="#666666">Osaka</text><path d="M 31.32 420 C 39.77 415.53 141.2 355.86 158.1 352.88 C 175 349.89 267.98 379.73 284.88 375.25 C 301.78 370.78 394.76 297.68 411.66 285.75 C 428.56 273.82 521.54 206.69 538.44 196.25 C 555.34 185.81 648.32 127.63 665.22 129.13 C 682.12 130.62 783.55 212.66 792 218.63 " fill="none" stroke="#ff6384" stroke-width="3"/><circle cx="31.32" cy="420" r="3" fill="#ff6384"/><circle cx="158.1" cy="352.88" r="3" fill="#ff6384"/><circle cx="284.88" cy="375.25" r="3" fill="#ff6384"/><circle cx="411.66" cy="285.75" r="3" fill="#ff6384"/><circle cx="538.44" cy="196.25" r="3" fill="#ff6384"/><circle cx="665.22" cy="129.13" r="3" fill="#ff6384"/><circle cx="792" cy="218.63" r="3" fill="#ff6384"/><path d="M 31.32 375.25 C 39.77 372.27 141.2 334.98 158.1 330.5 C 175 326.02 267.98 312.6 284.88 308.13 C 301.78 303.65 394.76 273.82 411.66 263.38 C 428.56 252.93 521.54 163.43 538.44 151.5 C 555.34 139.57 648.32 82.88 665.22 84.38 C 682.12 85.87 783.55 167.91 792 173.88 " fill="none" stroke="#36a2eb" stroke-width="3"/><circle cx="31.32" cy="375.25" r="3" fill="#36a2eb"/><circle cx="158.1" cy="330.5" r="3" fill="#36a2eb"/><circle cx="284.88" cy="308.13" r="3" fill="#36a2eb"/><circle cx="411.66" cy="263.38" r="3" fill="#36a2eb"/><circle cx="538.44" cy="151.5" r="3" fill="#36a2eb"/><circle cx="665.22" cy="84.38" r="3" fill="#36a2eb"/><circle cx="792" cy="173.88" r="3" fill="#36a2eb"/></svg>
