<svg xmlns="http://www.w3.org/2000/svg" width="800" height="450" viewBox="0 0 800 450"><text x="400" y="24" font-family="Noto Sans JP, sans-serif" font-size="16" text-anchor="middle" fill="#666666">Weekly Temperature (°C)</text><line x1="31.32" y1="420" x2="792" y2="420" stroke="#e0e0e0" stroke-width="1"/><text x="25.32" y="424.2" font-family="Noto Sans JP, sans-serif" font-size="12" text-anchor="end" fill="#666666">0</text><line x1="31.32" y1="360.33" x2="792" y2="360.33" stroke="#e0e0e0" stroke-width="1"/><text x="25.32" y="364.53" font-family="Noto Sans JP, sans-serif" font-size="12" text-anchor="end" fill="#666666">5</text><line x1="31.32" y1="300.67" x2="792" y2="300.67" stroke="#e0e0e0" stroke-width="1"/><text x="25.32" y="304.87" font-family="Noto Sans JP, sans-serif" font-size="12" text-anchor="end" fill="#666666">10</text><line x1="31.32" y1="241" x2="792" y2="241" stroke="#e0e0e0" stroke-width="1"/><text x="25.32" y="245.2" font-family="Noto Sans JP, sans-serif" font-size="12" text-anchor="end" fill="#666666">15</text><line x1="31.32" y1="181.33" x2="792" y2="181.33" stroke="#e0e0e0" stroke-width="1"/><text x="25.32" y="185.53" font-family="Noto Sans JP, sans-serif" font-size="12" text-anchor="end" fill="#666666">20</text><line x1="31.32" y1="121.67" x2="792" y2="121.67" stroke="#e0e0e0" stroke-width="1"/><text x="25.32" y="125.87" font-family="Noto Sans JP, sans-serif" font-size="12" text-anchor="end" fill="#666666">25</text><line x1="31.32" y1="62" x2="792" y2="62" stroke="#e0e0e0" stroke-width="1"/><text x="25.32" y="66.2" font-family="Noto Sans JP, sans-serif" font-size="12" text-anchor="end" fill="#666666">30</text><line x1="31.32" y1="420" x2="792" y2="420" stroke="#666666" stroke-width="1"/><text x="85.65" y="435.4" font-family="Noto Sans JP, sans-serif" font-size="12" text-anchor="middle" fill="#666666">Mon</text><text x="194.32" y="435.4" font-family="Noto Sans JP, sans-serif" font-size="12" text-anchor="middle" fill="#666666">Tue</text><text x="302.99" y="435.4" font-family="Noto Sans JP, sans-serif" font-size="12" text-anchor="middle" fill="#666666">Wed</text><text x="411.66" y="435.4" font-family="Noto Sans JP, sans-serif" font-size="12" text-anchor="middle" fill="#666666">Thu</text><text x="520.33" y="435.4" font-family="Noto Sans JP, sans-serif" font-size="12" text-anchor="middle" fill="#666666">Fri</text><text x="629" y="435.4" font-family="Noto Sans JP, sans-serif" font-size="12" text-anchor="middle" fill="#666666">Sat</text><text x="737.67" y="435.4" font-family="Noto Sans JP, sans-serif" font-size="12" text-anchor="middle" fill="#666666">Sun</text><rect x="341.37" y="43" width="12" height="12" fill="#36a2eb" fill-opacity="0.5"/><text x="357.37" y="53.2" font-family="Noto Sans JP, sans-serif" font-size="12" text-anchor="start" fill="#666666">Tokyo</text><rect x="407.98" y="43" width="12" height="12" fill="#ff6384" fill-opacity="0.5"/><text x="423.98" y="53.2" font-family="Noto Sans JP, sans-serif" font-size="12" text-anchor="start" fill="#666666">Osaka</text><path d="M 85.65 276.8 C 92.9 274.41 179.83 242.59 194.32 241 C 208.81 239.41 288.5 255.32 302.99 252.93 C 317.48 250.55 397.17 211.56 411.66 205.2 C 426.15 198.84 505.84 163.04 520.33 157.47 C 534.82 151.9 614.51 120.87 629 121.67 C 643.49 122.46 730.42 166.22 737.67 169.4 " fill="none" stroke="#ff6384" stroke-width="3"/><circle cx="85.65" cy="276.8" r="3" fill="#ff6384"/><circle cx="194.32" cy="241" r="3" fill="#ff6384"/><circle cx="302.99" cy="252.93" r="3" fill="#ff6384"/><circle cx="411.66" cy="205.2" r="3" fill="#ff6384"/><circle cx="520.33" cy="157.47" r="3" fill="#ff6384"/><circle cx="629" cy="121.67" r="3" fill="#ff6384"/><circle cx="737.67" cy="169.4" r="3" fill="#ff6384"/><path d="M 85.65 252.93 C 92.9 251.34 179.83 231.45 194.32 229.07 C 208.81 226.68 288.5 219.52 302.99 217.13 C 317.48 214.75 397.17 198.84 411.66 193.27 C 426.15 187.7 505.84 139.96 520.33 133.6 C 534.82 127.24 614.51 97 629 97.8 C 643.49 98.6 730.42 142.35 737.67 145.53 " fill="none" stroke="#36a2eb" stroke-width="3"/><circle cx="85.65" cy="252.93" r="3" fill="#36a2eb"/><circle cx="194.32" cy="229.07" r="3" fill="#36a2eb"/><circle cx="302.99" cy="217.13" r="3" fill="#36a2eb"/><circle cx="411.66" cy="193.27" r="3" fill="#36a2eb"/><circle cx="520.33" cy="133.6" r="3" fill="#36a2eb"/><circle cx="629" cy="97.8" r="3" fill="#36a2eb"/><circle cx="737.67" cy="145.53" r="3" fill="#36a2eb"/></svg>
